<svg width="492" height="314" viewBox="0 0 492 314" fill="none" xmlns="http://www.w3.org/2000/svg">
<path d="M34.0974 286.43L56.0642 183.084L133.848 253.625L34.0974 286.43Z" fill="#E3830D"/>
<path d="M34.0974 286.43L56.0642 183.084L133.848 253.625L34.0974 286.43Z" stroke="black"/>
<circle cx="161.5" cy="152.5" r="121.5" fill="#E3830D"/>
<circle cx="161.5" cy="152.5" r="121.5" stroke="#2E1A1A"/>
<path d="M459.202 280.64L357.95 257.264L428.654 181.983L459.202 280.64Z" fill="#0D78E3" stroke="black"/>
<circle cx="328.251" cy="151.602" r="121" transform="rotate(-89 328.251 151.602)" fill="#0D78E3" stroke="#311919"/>
<path d="M39.7287 71.1409C80.9505 19.9597 113.695 7.20128 182.215 1.984" stroke="#E3830D" stroke-width="3"/>
<path d="M369 287C318.55 294.008 290.022 290.461 242.078 265.831" stroke="#0D78E3" stroke-width="3"/>
<path d="M437 31H415" stroke="#E3830D" stroke-width="6" stroke-linecap="round"/>
<path d="M426 42V20" stroke="#E3830D" stroke-width="6" stroke-linecap="round"/>
<path d="M25 209H3" stroke="#0D78E3" stroke-width="6" stroke-linecap="round"/>
<path d="M14 220L14 198" stroke="#0D78E3" stroke-width="6" stroke-linecap="round"/>
<ellipse cx="121" cy="151.5" rx="20" ry="20.5" fill="black"/>
<ellipse cx="179" cy="151.5" rx="20" ry="20.5" fill="black"/>
<ellipse cx="237" cy="151.5" rx="20" ry="20.5" fill="black"/>
<ellipse cx="295" cy="151.5" rx="20" ry="20.5" fill="black"/>
<ellipse cx="353" cy="151.5" rx="20" ry="20.5" fill="black"/>
</svg>
