<svg width="499" height="315" viewBox="0 0 499 315" fill="none" xmlns="http://www.w3.org/2000/svg">
<path d="M41.2883 287.43L63.2551 184.084L141.039 254.625L41.2883 287.43Z" fill="#E3830D"/>
<path d="M41.2883 287.43L63.2551 184.084L141.039 254.625L41.2883 287.43Z" stroke="black"/>
<circle cx="168.691" cy="153.5" r="121.5" fill="#E3830D"/>
<circle cx="168.691" cy="153.5" r="121.5" stroke="#2E1A1A"/>
<path d="M466.393 281.64L365.14 258.264L435.845 182.983L466.393 281.64Z" fill="#0D78E3" stroke="black"/>
<circle cx="335.441" cy="152.602" r="121" transform="rotate(-89 335.441 152.602)" fill="#0D78E3" stroke="#311919"/>
<path d="M33.183 85.1859C75.7848 17.4267 113.654 3.78041 196 6.16138" stroke="#E3830D" stroke-width="11" stroke-linecap="round"/>
<path d="M395.5 281.5C338.263 309.406 288 300.5 247.236 264.094" stroke="#0D78E3" stroke-width="9" stroke-linecap="round"/>
<path d="M459 29L429 29" stroke="#E3830D" stroke-width="10" stroke-linecap="round"/>
<path d="M444 44V14" stroke="#E3830D" stroke-width="10" stroke-linecap="round"/>
<path d="M35 207H5" stroke="#0D78E3" stroke-width="10" stroke-linecap="round"/>
<path d="M20 222L20 192" stroke="#0D78E3" stroke-width="10" stroke-linecap="round"/>
<ellipse cx="128.19" cy="152.5" rx="20" ry="20.5" fill="black"/>
<ellipse cx="186.19" cy="152.5" rx="20" ry="20.5" fill="black"/>
<ellipse cx="244.19" cy="152.5" rx="20" ry="20.5" fill="black"/>
<ellipse cx="302.19" cy="152.5" rx="20" ry="20.5" fill="black"/>
<ellipse cx="360.19" cy="152.5" rx="20" ry="20.5" fill="black"/>
</svg>
