<svg width="1403" height="315" viewBox="0 0 1403 315" fill="none" xmlns="http://www.w3.org/2000/svg">
<path d="M41.2883 287.43L63.2551 184.084L141.039 254.625L41.2883 287.43Z" fill="#E3830D"/>
<path d="M41.2883 287.43L63.2551 184.084L141.039 254.625L41.2883 287.43Z" stroke="black"/>
<circle cx="168.691" cy="153.5" r="121.5" fill="#E3830D"/>
<circle cx="168.691" cy="153.5" r="121.5" stroke="#2E1A1A"/>
<path d="M466.393 281.64L365.14 258.264L435.845 182.983L466.393 281.64Z" fill="#0D78E3" stroke="black"/>
<circle cx="335.441" cy="152.602" r="121" transform="rotate(-89 335.441 152.602)" fill="#0D78E3" stroke="#311919"/>
<path d="M33.183 85.1859C75.7848 17.4267 113.654 3.78041 196 6.16138" stroke="#E3830D" stroke-width="11" stroke-linecap="round"/>
<path d="M395.5 281.5C338.263 309.406 288 300.5 247.236 264.094" stroke="#0D78E3" stroke-width="9" stroke-linecap="round"/>
<path d="M459 29L429 29" stroke="#E3830D" stroke-width="10" stroke-linecap="round"/>
<path d="M444 44V14" stroke="#E3830D" stroke-width="10" stroke-linecap="round"/>
<path d="M35 207H5" stroke="#0D78E3" stroke-width="10" stroke-linecap="round"/>
<path d="M20 222L20 192" stroke="#0D78E3" stroke-width="10" stroke-linecap="round"/>
<ellipse cx="128.19" cy="152.5" rx="20" ry="20.5" fill="black"/>
<ellipse cx="186.19" cy="152.5" rx="20" ry="20.5" fill="black"/>
<ellipse cx="244.19" cy="152.5" rx="20" ry="20.5" fill="black"/>
<ellipse cx="302.19" cy="152.5" rx="20" ry="20.5" fill="black"/>
<ellipse cx="360.19" cy="152.5" rx="20" ry="20.5" fill="black"/>
<path d="M650.153 207.045L654.068 216.47L627.388 232.855C622.458 234.208 617.721 235.078 613.178 235.465C608.634 235.852 603.753 236.045 598.533 236.045C586.643 236.045 576.106 233.58 566.923 228.65C557.836 223.72 550.731 216.953 545.608 208.35C540.581 199.65 538.068 189.79 538.068 178.77C538.068 167.46 541.789 157.02 549.233 147.45C556.773 137.783 566.101 130.195 577.218 124.685C588.431 119.078 599.064 116.275 609.118 116.275C615.401 116.275 622.699 117 631.013 118.45C639.326 119.9 645.416 121.447 649.283 123.09V159.485H633.188C625.164 142.762 614.338 134.4 600.708 134.4C594.908 134.4 589.591 136.043 584.758 139.33C580.021 142.52 576.251 146.967 573.448 152.67C570.741 158.373 569.388 164.753 569.388 171.81C569.388 180.22 570.741 187.905 573.448 194.865C576.154 201.825 580.311 207.383 585.918 211.54C591.524 215.697 598.436 217.775 606.653 217.775C607.136 217.775 608.828 217.775 611.728 217.775C614.724 217.775 617.914 217.582 621.298 217.195V190.225L597.808 184.57L603.028 174.13H663.783V183.265L650.153 195.3V207.045ZM782.418 138.895V188.05C782.418 198.2 779.856 206.9 774.733 214.15C769.706 221.4 763.374 226.862 755.738 230.535C748.198 234.112 740.851 235.9 733.698 235.9C724.224 235.9 715.718 234.015 708.178 230.245C700.638 226.378 694.741 221.11 690.488 214.44C686.331 207.673 684.253 200.085 684.253 191.675V133.53L667.868 129.47L673.233 119.03H726.738V128.165L712.963 138.895V187.035C712.963 196.798 715.476 204.387 720.503 209.8C725.529 215.117 733.214 217.775 743.558 217.775C747.424 217.775 751.291 216.615 755.158 214.295C759.121 211.975 762.359 208.592 764.873 204.145C767.386 199.698 768.643 194.478 768.643 188.485V135.85L751.098 129.47L756.463 119.03H796.193V128.165L782.418 138.895ZM863.971 176.16C868.804 176.16 872.574 174.372 875.281 170.795C878.084 167.218 879.486 162.288 879.486 156.005C879.486 148.755 877.746 142.858 874.266 138.315C870.786 133.772 865.663 131.5 858.896 131.5C854.643 131.5 850.679 132.805 847.006 135.415V217.195L872.961 222.415L867.741 233H804.666V223.72L818.296 212.99V134.4L802.056 129.47L807.276 119.03H833.521C841.931 119.03 850.196 118.74 858.316 118.16C864.116 117.773 868.466 117.58 871.366 117.58C879.099 117.58 885.963 119.078 891.956 122.075C897.949 124.975 902.589 129.035 905.876 134.255C909.163 139.378 910.806 145.13 910.806 151.51C910.806 158.47 908.051 165.043 902.541 171.23C897.128 177.32 890.264 182.153 881.951 185.73C873.734 189.21 865.711 190.757 857.881 190.37L851.791 186.6L857.011 176.16H863.971ZM979.235 209.655C979.235 206.755 978.075 204 975.755 201.39C973.531 198.78 970.776 196.412 967.49 194.285C964.203 192.062 959.611 189.258 953.715 185.875C946.465 181.718 940.665 178.19 936.315 175.29C931.965 172.293 928.243 168.813 925.15 164.85C922.056 160.79 920.51 156.343 920.51 151.51C920.51 146.677 922.781 141.505 927.325 135.995C931.868 130.388 937.426 125.7 944 121.93C950.67 118.063 956.76 116.13 962.27 116.13C968.94 116.13 976.721 116.855 985.615 118.305C994.605 119.755 1001.18 121.302 1005.33 122.945V155.715H989.095C985.421 147.885 981.216 141.795 976.48 137.445C971.743 133.095 966.813 130.92 961.69 130.92C958.306 130.92 955.648 132.032 953.715 134.255C951.781 136.382 950.815 139.137 950.815 142.52C950.815 145.613 951.975 148.562 954.295 151.365C956.615 154.072 959.466 156.585 962.85 158.905C966.33 161.128 971.066 163.883 977.06 167.17C984.116 171.133 989.771 174.565 994.025 177.465C998.375 180.365 1002.05 183.797 1005.04 187.76C1008.14 191.627 1009.68 195.928 1009.68 200.665C1009.68 205.498 1007.22 210.718 1002.29 216.325C997.456 221.835 991.56 226.523 984.6 230.39C977.64 234.16 971.26 236.045 965.46 236.045C958.403 236.045 950.09 235.32 940.52 233.87C930.95 232.42 924.038 230.873 919.785 229.23V196.315H935.88C939.843 204.145 944.483 210.235 949.8 214.585C955.213 218.935 960.675 221.11 966.185 221.11C970.148 221.11 973.29 219.998 975.61 217.775C978.026 215.552 979.235 212.845 979.235 209.655ZM1150.36 233H1096.86V223.72L1110.49 211.975V182.395H1063.8V217.92L1080.18 222.415L1074.96 233H1021.46V223.72L1035.09 211.975V133.965L1018.85 129.47L1024.07 119.03H1077.57V128.165L1063.8 140.055V170.07H1110.49V133.965L1094.25 129.47L1099.47 119.03H1152.97V128.165L1139.2 140.055V217.92L1155.58 222.415L1150.36 233ZM1273.78 138.895V188.05C1273.78 198.2 1271.21 206.9 1266.09 214.15C1261.06 221.4 1254.73 226.862 1247.1 230.535C1239.56 234.112 1232.21 235.9 1225.06 235.9C1215.58 235.9 1207.08 234.015 1199.54 230.245C1192 226.378 1186.1 221.11 1181.85 214.44C1177.69 207.673 1175.61 200.085 1175.61 191.675V133.53L1159.23 129.47L1164.59 119.03H1218.1V128.165L1204.32 138.895V187.035C1204.32 196.798 1206.83 204.387 1211.86 209.8C1216.89 215.117 1224.57 217.775 1234.92 217.775C1238.78 217.775 1242.65 216.615 1246.52 214.295C1250.48 211.975 1253.72 208.592 1256.23 204.145C1258.74 199.698 1260 194.478 1260 188.485V135.85L1242.46 129.47L1247.82 119.03H1287.55V128.165L1273.78 138.895ZM1355.33 176.16C1360.16 176.16 1363.93 174.372 1366.64 170.795C1369.44 167.218 1370.84 162.288 1370.84 156.005C1370.84 148.755 1369.1 142.858 1365.62 138.315C1362.14 133.772 1357.02 131.5 1350.25 131.5C1346 131.5 1342.04 132.805 1338.36 135.415V217.195L1364.32 222.415L1359.1 233H1296.02V223.72L1309.65 212.99V134.4L1293.41 129.47L1298.63 119.03H1324.88C1333.29 119.03 1341.55 118.74 1349.67 118.16C1355.47 117.773 1359.82 117.58 1362.72 117.58C1370.46 117.58 1377.32 119.078 1383.31 122.075C1389.31 124.975 1393.95 129.035 1397.23 134.255C1400.52 139.378 1402.16 145.13 1402.16 151.51C1402.16 158.47 1399.41 165.043 1393.9 171.23C1388.49 177.32 1381.62 182.153 1373.31 185.73C1365.09 189.21 1357.07 190.757 1349.24 190.37L1343.15 186.6L1348.37 176.16H1355.33Z" fill="black"/>
</svg>
