<svg width="1153" height="191" viewBox="0 0 1153 191" fill="none" xmlns="http://www.w3.org/2000/svg">
<path d="M186.854 1.20649C192.78 1.20649 197.402 6.2277 196.709 12.1134C191.826 53.5994 172.608 197.77 144.386 168.147C115.035 137.34 58.1813 70.4839 3.57744 18.7112C-3.11987 12.3611 1.34931 0.823339 10.5784 0.860717L95.9527 1.20649L186.854 1.20649Z" fill="white"/>
<path d="M138 95.8164H1058" stroke="white" stroke-width="189" stroke-linecap="round"/>
<path d="M200.844 91.7676V98.0537H169.293V91.7676H200.844ZM170.494 66.7031V125H162.767V66.7031H170.494ZM207.57 66.7031V125H199.883V66.7031H207.57ZM238.16 125.801C235.144 125.801 232.408 125.294 229.952 124.279C227.523 123.238 225.428 121.784 223.666 119.915C221.931 118.047 220.596 115.831 219.662 113.269C218.728 110.706 218.261 107.903 218.261 104.86V103.179C218.261 99.6553 218.781 96.5189 219.822 93.7695C220.863 90.9935 222.278 88.6445 224.066 86.7227C225.855 84.8008 227.883 83.346 230.152 82.3584C232.421 81.3708 234.77 80.877 237.199 80.877C240.296 80.877 242.965 81.4108 245.207 82.4785C247.476 83.5462 249.331 85.041 250.772 86.9629C252.214 88.8581 253.282 91.1003 253.976 93.6895C254.67 96.252 255.017 99.0547 255.017 102.098V105.421H222.665V99.375H247.609V98.8145C247.503 96.8926 247.102 95.0241 246.408 93.209C245.741 91.3939 244.673 89.8991 243.205 88.7246C241.737 87.5501 239.735 86.9629 237.199 86.9629C235.518 86.9629 233.969 87.3232 232.555 88.0439C231.14 88.738 229.925 89.779 228.911 91.167C227.897 92.555 227.109 94.25 226.549 96.252C225.988 98.2539 225.708 100.563 225.708 103.179V104.86C225.708 106.916 225.988 108.851 226.549 110.666C227.136 112.454 227.977 114.029 229.071 115.391C230.192 116.752 231.54 117.82 233.115 118.594C234.717 119.368 236.532 119.755 238.561 119.755C241.176 119.755 243.392 119.221 245.207 118.153C247.022 117.086 248.61 115.658 249.972 113.869L254.456 117.433C253.522 118.847 252.334 120.195 250.893 121.477C249.451 122.758 247.676 123.799 245.567 124.6C243.485 125.4 241.016 125.801 238.16 125.801ZM271.713 63.5V125H264.266V63.5H271.713ZM291.652 63.5V125H284.205V63.5H291.652ZM301.582 103.819V102.898C301.582 99.7754 302.036 96.8792 302.943 94.21C303.851 91.514 305.159 89.1784 306.867 87.2031C308.576 85.2012 310.644 83.653 313.073 82.5586C315.502 81.4375 318.225 80.877 321.241 80.877C324.284 80.877 327.02 81.4375 329.449 82.5586C331.905 83.653 333.987 85.2012 335.695 87.2031C337.43 89.1784 338.752 91.514 339.659 94.21C340.567 96.8792 341.021 99.7754 341.021 102.898V103.819C341.021 106.942 340.567 109.839 339.659 112.508C338.752 115.177 337.43 117.513 335.695 119.515C333.987 121.49 331.918 123.038 329.489 124.159C327.087 125.254 324.364 125.801 321.321 125.801C318.278 125.801 315.542 125.254 313.113 124.159C310.684 123.038 308.602 121.49 306.867 119.515C305.159 117.513 303.851 115.177 302.943 112.508C302.036 109.839 301.582 106.942 301.582 103.819ZM308.989 102.898V103.819C308.989 105.981 309.243 108.023 309.75 109.945C310.257 111.84 311.018 113.522 312.032 114.99C313.073 116.458 314.368 117.619 315.916 118.474C317.464 119.301 319.266 119.715 321.321 119.715C323.35 119.715 325.125 119.301 326.646 118.474C328.195 117.619 329.476 116.458 330.49 114.99C331.505 113.522 332.265 111.84 332.772 109.945C333.306 108.023 333.573 105.981 333.573 103.819V102.898C333.573 100.763 333.306 98.7477 332.772 96.8525C332.265 94.9307 331.491 93.2357 330.45 91.7676C329.436 90.2728 328.155 89.0983 326.606 88.2441C325.085 87.39 323.297 86.9629 321.241 86.9629C319.213 86.9629 317.424 87.39 315.876 88.2441C314.354 89.0983 313.073 90.2728 312.032 91.7676C311.018 93.2357 310.257 94.9307 309.75 96.8525C309.243 98.7477 308.989 100.763 308.989 102.898ZM392.551 97.7334H377.776L377.696 91.5273H391.109C393.325 91.5273 395.26 91.1536 396.915 90.4062C398.57 89.6589 399.851 88.5911 400.759 87.2031C401.693 85.7884 402.16 84.1068 402.16 82.1582C402.16 80.0228 401.746 78.2878 400.919 76.9531C400.118 75.5918 398.877 74.6042 397.195 73.9902C395.54 73.3496 393.432 73.0293 390.869 73.0293H379.498V125H371.771V66.7031H390.869C393.859 66.7031 396.528 67.0101 398.877 67.624C401.226 68.2113 403.215 69.1455 404.843 70.4268C406.498 71.6813 407.752 73.2829 408.606 75.2314C409.461 77.18 409.888 79.5156 409.888 82.2383C409.888 84.6406 409.274 86.8161 408.046 88.7646C406.818 90.6865 405.11 92.2614 402.921 93.4893C400.759 94.7171 398.223 95.5046 395.313 95.8516L392.551 97.7334ZM392.19 125H374.733L379.098 118.714H392.19C394.646 118.714 396.728 118.287 398.437 117.433C400.172 116.578 401.493 115.377 402.4 113.829C403.308 112.254 403.762 110.399 403.762 108.264C403.762 106.102 403.375 104.233 402.601 102.658C401.826 101.083 400.612 99.8688 398.957 99.0146C397.302 98.1605 395.167 97.7334 392.551 97.7334H381.54L381.62 91.5273H396.675L398.316 93.7695C401.119 94.0098 403.495 94.8105 405.443 96.1719C407.392 97.5065 408.873 99.2148 409.888 101.297C410.929 103.379 411.449 105.674 411.449 108.184C411.449 111.814 410.648 114.883 409.047 117.393C407.472 119.875 405.243 121.77 402.36 123.078C399.478 124.359 396.088 125 392.19 125ZM429.146 88.4844V125H421.739V81.6777H428.946L429.146 88.4844ZM442.68 81.4375L442.64 88.3242C442.026 88.1908 441.438 88.1107 440.878 88.084C440.344 88.0306 439.73 88.0039 439.036 88.0039C437.328 88.0039 435.82 88.2708 434.512 88.8047C433.204 89.3385 432.096 90.0859 431.188 91.0469C430.281 92.0078 429.56 93.1556 429.026 94.4902C428.519 95.7982 428.186 97.2396 428.025 98.8145L425.943 100.016C425.943 97.3997 426.197 94.944 426.704 92.6484C427.238 90.3529 428.052 88.3242 429.146 86.5625C430.241 84.7741 431.629 83.3861 433.311 82.3984C435.019 81.3841 437.048 80.877 439.396 80.877C439.93 80.877 440.544 80.9437 441.238 81.0771C441.932 81.1839 442.413 81.304 442.68 81.4375ZM446.764 103.819V102.898C446.764 99.7754 447.217 96.8792 448.125 94.21C449.033 91.514 450.34 89.1784 452.049 87.2031C453.757 85.2012 455.826 83.653 458.255 82.5586C460.684 81.4375 463.407 80.877 466.423 80.877C469.466 80.877 472.202 81.4375 474.631 82.5586C477.087 83.653 479.169 85.2012 480.877 87.2031C482.612 89.1784 483.933 91.514 484.841 94.21C485.748 96.8792 486.202 99.7754 486.202 102.898V103.819C486.202 106.942 485.748 109.839 484.841 112.508C483.933 115.177 482.612 117.513 480.877 119.515C479.169 121.49 477.1 123.038 474.671 124.159C472.269 125.254 469.546 125.801 466.503 125.801C463.46 125.801 460.724 125.254 458.295 124.159C455.866 123.038 453.784 121.49 452.049 119.515C450.34 117.513 449.033 115.177 448.125 112.508C447.217 109.839 446.764 106.942 446.764 103.819ZM454.171 102.898V103.819C454.171 105.981 454.424 108.023 454.932 109.945C455.439 111.84 456.2 113.522 457.214 114.99C458.255 116.458 459.549 117.619 461.098 118.474C462.646 119.301 464.448 119.715 466.503 119.715C468.532 119.715 470.307 119.301 471.828 118.474C473.376 117.619 474.658 116.458 475.672 114.99C476.686 113.522 477.447 111.84 477.954 109.945C478.488 108.023 478.755 105.981 478.755 103.819V102.898C478.755 100.763 478.488 98.7477 477.954 96.8525C477.447 94.9307 476.673 93.2357 475.632 91.7676C474.618 90.2728 473.336 89.0983 471.788 88.2441C470.267 87.39 468.478 86.9629 466.423 86.9629C464.394 86.9629 462.606 87.39 461.058 88.2441C459.536 89.0983 458.255 90.2728 457.214 91.7676C456.2 93.2357 455.439 94.9307 454.932 96.8525C454.424 98.7477 454.171 100.763 454.171 102.898ZM532.287 107.383L543.858 66.7031H549.464L546.221 82.5186L533.769 125H528.203L532.287 107.383ZM520.315 66.7031L529.524 106.582L532.287 125H526.762L512.628 66.7031H520.315ZM564.438 106.542L573.447 66.7031H581.175L567.081 125H561.556L564.438 106.542ZM550.305 66.7031L561.556 107.383L565.64 125H560.074L548.062 82.5186L544.779 66.7031H550.305ZM596.029 63.5V125H588.622V63.5H596.029ZM594.268 101.697L591.185 101.577C591.211 98.6143 591.652 95.8783 592.506 93.3691C593.36 90.8333 594.561 88.6312 596.109 86.7627C597.658 84.8942 599.499 83.4528 601.635 82.4385C603.797 81.3975 606.186 80.877 608.802 80.877C610.937 80.877 612.859 81.1706 614.567 81.7578C616.276 82.3184 617.73 83.2259 618.932 84.4805C620.16 85.735 621.094 87.3633 621.734 89.3652C622.375 91.3405 622.695 93.7562 622.695 96.6123V125H615.248V96.5322C615.248 94.2633 614.914 92.4482 614.247 91.0869C613.58 89.6989 612.605 88.6979 611.324 88.084C610.043 87.4434 608.468 87.123 606.6 87.123C604.758 87.123 603.076 87.5101 601.555 88.2842C600.06 89.0583 598.765 90.126 597.671 91.4873C596.603 92.8486 595.762 94.4102 595.148 96.1719C594.561 97.9069 594.268 99.7487 594.268 101.697ZM659.331 117.593V95.291C659.331 93.5827 658.984 92.1012 658.29 90.8467C657.623 89.5654 656.608 88.5778 655.247 87.8838C653.886 87.1898 652.204 86.8428 650.202 86.8428C648.334 86.8428 646.692 87.1631 645.277 87.8037C643.889 88.4443 642.795 89.2852 641.994 90.3262C641.22 91.3672 640.833 92.4883 640.833 93.6895H633.426C633.426 92.1413 633.826 90.6064 634.627 89.085C635.428 87.5635 636.576 86.1888 638.07 84.9609C639.592 83.7064 641.407 82.7188 643.516 81.998C645.651 81.2507 648.027 80.877 650.643 80.877C653.792 80.877 656.568 81.4108 658.971 82.4785C661.4 83.5462 663.295 85.1611 664.656 87.3232C666.044 89.4587 666.738 92.1413 666.738 95.3711V115.551C666.738 116.992 666.858 118.527 667.099 120.155C667.366 121.784 667.753 123.185 668.26 124.359V125H660.532C660.159 124.146 659.865 123.011 659.651 121.597C659.438 120.155 659.331 118.821 659.331 117.593ZM660.612 98.7344L660.692 103.939H653.205C651.096 103.939 649.215 104.113 647.56 104.46C645.905 104.78 644.517 105.274 643.396 105.941C642.274 106.609 641.42 107.45 640.833 108.464C640.246 109.451 639.952 110.613 639.952 111.947C639.952 113.309 640.259 114.55 640.873 115.671C641.487 116.792 642.408 117.686 643.636 118.354C644.89 118.994 646.425 119.314 648.24 119.314C650.509 119.314 652.511 118.834 654.246 117.873C655.981 116.912 657.356 115.738 658.37 114.35C659.411 112.962 659.972 111.614 660.052 110.306L663.215 113.869C663.028 114.99 662.521 116.231 661.693 117.593C660.866 118.954 659.758 120.262 658.37 121.517C657.009 122.744 655.381 123.772 653.485 124.6C651.617 125.4 649.508 125.801 647.159 125.801C644.223 125.801 641.647 125.227 639.432 124.079C637.243 122.931 635.535 121.396 634.307 119.475C633.105 117.526 632.505 115.351 632.505 112.948C632.505 110.626 632.959 108.584 633.866 106.822C634.774 105.034 636.082 103.552 637.79 102.378C639.498 101.177 641.554 100.269 643.956 99.6553C646.358 99.0413 649.041 98.7344 652.004 98.7344H660.612ZM696.527 81.6777V87.3633H673.104V81.6777H696.527ZM681.032 71.1475H688.439V114.27C688.439 115.738 688.666 116.845 689.12 117.593C689.574 118.34 690.161 118.834 690.882 119.074C691.603 119.314 692.377 119.435 693.204 119.435C693.818 119.435 694.459 119.381 695.126 119.274C695.82 119.141 696.34 119.034 696.688 118.954L696.728 125C696.14 125.187 695.366 125.36 694.405 125.521C693.471 125.707 692.337 125.801 691.002 125.801C689.187 125.801 687.519 125.44 685.997 124.72C684.476 123.999 683.261 122.798 682.354 121.116C681.473 119.408 681.032 117.112 681.032 114.229V71.1475ZM712.703 63.5V68.625C712.703 70.2266 712.423 71.9215 711.862 73.71C711.328 75.4717 710.541 77.18 709.5 78.835C708.459 80.4632 707.204 81.8913 705.736 83.1191L701.492 80.1963C702.747 78.4346 703.694 76.6328 704.335 74.791C705.002 72.9225 705.336 70.9072 705.336 68.7451V63.5H712.703ZM742.372 113.509C742.372 112.441 742.132 111.453 741.651 110.546C741.198 109.612 740.25 108.771 738.809 108.023C737.394 107.249 735.258 106.582 732.402 106.021C730 105.514 727.825 104.914 725.876 104.22C723.954 103.526 722.312 102.685 720.951 101.697C719.617 100.71 718.589 99.5485 717.868 98.2139C717.147 96.8792 716.787 95.3177 716.787 93.5293C716.787 91.821 717.161 90.2061 717.908 88.6846C718.682 87.1631 719.763 85.8151 721.151 84.6406C722.566 83.4661 724.261 82.5452 726.236 81.8779C728.212 81.2106 730.414 80.877 732.843 80.877C736.313 80.877 739.276 81.4909 741.731 82.7188C744.187 83.9466 746.069 85.5882 747.377 87.6436C748.685 89.6722 749.339 91.9277 749.339 94.4102H741.932C741.932 93.209 741.571 92.0479 740.851 90.9268C740.157 89.779 739.129 88.8314 737.768 88.084C736.433 87.3366 734.791 86.9629 732.843 86.9629C730.787 86.9629 729.119 87.2832 727.838 87.9238C726.583 88.5378 725.662 89.3252 725.075 90.2861C724.515 91.2471 724.234 92.2614 724.234 93.3291C724.234 94.1299 724.368 94.8506 724.635 95.4912C724.928 96.1051 725.436 96.679 726.156 97.2129C726.877 97.7201 727.891 98.2005 729.199 98.6543C730.507 99.1081 732.175 99.5618 734.204 100.016C737.754 100.816 740.677 101.777 742.973 102.898C745.268 104.02 746.977 105.394 748.098 107.022C749.219 108.651 749.779 110.626 749.779 112.948C749.779 114.843 749.379 116.578 748.578 118.153C747.804 119.728 746.67 121.09 745.175 122.237C743.707 123.358 741.945 124.239 739.89 124.88C737.861 125.494 735.579 125.801 733.043 125.801C729.226 125.801 725.996 125.12 723.354 123.759C720.711 122.397 718.709 120.636 717.348 118.474C715.986 116.312 715.306 114.029 715.306 111.627H722.753C722.86 113.656 723.447 115.271 724.515 116.472C725.582 117.646 726.89 118.487 728.438 118.994C729.987 119.475 731.521 119.715 733.043 119.715C735.072 119.715 736.767 119.448 738.128 118.914C739.516 118.38 740.57 117.646 741.291 116.712C742.012 115.778 742.372 114.71 742.372 113.509ZM806.354 114.99V81.6777H813.802V125H806.715L806.354 114.99ZM807.756 105.861L810.839 105.781C810.839 108.664 810.532 111.333 809.918 113.789C809.331 116.218 808.37 118.327 807.035 120.115C805.701 121.904 803.952 123.305 801.79 124.319C799.628 125.307 796.999 125.801 793.902 125.801C791.794 125.801 789.858 125.494 788.097 124.88C786.362 124.266 784.867 123.318 783.612 122.037C782.358 120.756 781.383 119.088 780.689 117.032C780.022 114.977 779.688 112.508 779.688 109.625V81.6777H787.096V109.705C787.096 111.654 787.309 113.269 787.736 114.55C788.19 115.804 788.791 116.805 789.538 117.553C790.312 118.273 791.166 118.781 792.101 119.074C793.062 119.368 794.049 119.515 795.063 119.515C798.213 119.515 800.709 118.914 802.551 117.713C804.393 116.485 805.714 114.843 806.515 112.788C807.342 110.706 807.756 108.397 807.756 105.861ZM832.5 90.0059V141.656H825.053V81.6777H831.859L832.5 90.0059ZM861.688 102.979V103.819C861.688 106.969 861.315 109.892 860.567 112.588C859.82 115.257 858.726 117.579 857.284 119.555C855.869 121.53 854.121 123.065 852.039 124.159C849.957 125.254 847.568 125.801 844.872 125.801C842.123 125.801 839.694 125.347 837.585 124.439C835.476 123.532 833.688 122.211 832.22 120.476C830.752 118.741 829.577 116.659 828.696 114.229C827.842 111.8 827.255 109.064 826.935 106.021V101.537C827.255 98.334 827.855 95.4645 828.736 92.9287C829.617 90.3929 830.778 88.2308 832.22 86.4424C833.688 84.6273 835.463 83.2526 837.545 82.3184C839.627 81.3574 842.029 80.877 844.752 80.877C847.475 80.877 849.89 81.4108 851.999 82.4785C854.108 83.5195 855.883 85.0143 857.324 86.9629C858.766 88.9115 859.847 91.2471 860.567 93.9697C861.315 96.6657 861.688 99.6686 861.688 102.979ZM854.241 103.819V102.979C854.241 100.816 854.014 98.7878 853.561 96.8926C853.107 94.9707 852.399 93.2891 851.438 91.8477C850.504 90.3796 849.303 89.2318 847.835 88.4043C846.367 87.5501 844.618 87.123 842.59 87.123C840.721 87.123 839.093 87.4434 837.705 88.084C836.344 88.7246 835.183 89.5921 834.222 90.6865C833.261 91.7542 832.473 92.9821 831.859 94.3701C831.272 95.7314 830.832 97.1462 830.538 98.6143V108.984C831.072 110.853 831.819 112.615 832.78 114.27C833.741 115.898 835.022 117.219 836.624 118.233C838.226 119.221 840.241 119.715 842.67 119.715C844.672 119.715 846.394 119.301 847.835 118.474C849.303 117.619 850.504 116.458 851.438 114.99C852.399 113.522 853.107 111.84 853.561 109.945C854.014 108.023 854.241 105.981 854.241 103.819ZM887.233 108.584H879.786C879.813 106.021 880.04 103.926 880.467 102.298C880.921 100.643 881.655 99.1348 882.669 97.7734C883.683 96.4121 885.031 94.8639 886.713 93.1289C887.941 91.8743 889.062 90.6999 890.076 89.6055C891.117 88.4844 891.958 87.2832 892.599 86.002C893.239 84.694 893.56 83.1325 893.56 81.3174C893.56 79.4756 893.226 77.8874 892.559 76.5527C891.918 75.2181 890.957 74.1904 889.676 73.4697C888.421 72.749 886.86 72.3887 884.991 72.3887C883.443 72.3887 881.975 72.6689 880.587 73.2295C879.199 73.79 878.078 74.6576 877.224 75.832C876.369 76.9798 875.929 78.488 875.902 80.3564H868.495C868.549 77.3402 869.296 74.751 870.737 72.5889C872.205 70.4268 874.181 68.7718 876.663 67.624C879.146 66.4762 881.922 65.9023 884.991 65.9023C888.381 65.9023 891.264 66.5163 893.64 67.7441C896.042 68.972 897.87 70.7337 899.125 73.0293C900.38 75.2982 901.007 77.9941 901.007 81.1172C901.007 83.5195 900.513 85.735 899.525 87.7637C898.564 89.7656 897.323 91.6475 895.802 93.4092C894.28 95.1709 892.665 96.8525 890.957 98.4541C889.489 99.8154 888.501 101.35 887.994 103.059C887.487 104.767 887.233 106.609 887.233 108.584ZM879.466 121.276C879.466 120.075 879.84 119.061 880.587 118.233C881.334 117.406 882.415 116.992 883.83 116.992C885.271 116.992 886.366 117.406 887.113 118.233C887.861 119.061 888.234 120.075 888.234 121.276C888.234 122.424 887.861 123.412 887.113 124.239C886.366 125.067 885.271 125.48 883.83 125.48C882.415 125.48 881.334 125.067 880.587 124.239C879.84 123.412 879.466 122.424 879.466 121.276Z" fill="black"/>
<path d="M948.018 114.832V147H943.953V119.908L935.757 122.896V119.227L947.381 114.832H948.018ZM973.331 114.832V147H969.266V119.908L961.07 122.896V119.227L972.693 114.832H973.331ZM985.547 144.847C985.547 144.158 985.76 143.58 986.185 143.111C986.624 142.627 987.254 142.386 988.074 142.386C988.895 142.386 989.517 142.627 989.942 143.111C990.381 143.58 990.601 144.158 990.601 144.847C990.601 145.521 990.381 146.092 989.942 146.561C989.517 147.029 988.895 147.264 988.074 147.264C987.254 147.264 986.624 147.029 986.185 146.561C985.76 146.092 985.547 145.521 985.547 144.847ZM985.569 125.445C985.569 124.756 985.782 124.178 986.207 123.709C986.646 123.226 987.276 122.984 988.096 122.984C988.917 122.984 989.539 123.226 989.964 123.709C990.403 124.178 990.623 124.756 990.623 125.445C990.623 126.119 990.403 126.69 989.964 127.159C989.539 127.627 988.917 127.862 988.096 127.862C987.276 127.862 986.646 127.627 986.207 127.159C985.782 126.69 985.569 126.119 985.569 125.445ZM1017.14 143.66V147H996.204V144.078L1006.69 132.41C1007.97 130.975 1008.97 129.759 1009.67 128.763C1010.39 127.752 1010.89 126.851 1011.17 126.06C1011.46 125.254 1011.61 124.434 1011.61 123.599C1011.61 122.544 1011.39 121.592 1010.95 120.743C1010.52 119.878 1009.89 119.19 1009.06 118.677C1008.22 118.165 1007.21 117.908 1006.03 117.908C1004.6 117.908 1003.42 118.187 1002.47 118.743C1001.53 119.285 1000.83 120.047 1000.36 121.028C999.888 122.01 999.654 123.138 999.654 124.412H995.589C995.589 122.61 995.984 120.962 996.775 119.468C997.566 117.974 998.738 116.788 1000.29 115.909C1001.84 115.015 1003.76 114.568 1006.03 114.568C1008.05 114.568 1009.78 114.927 1011.21 115.645C1012.65 116.348 1013.75 117.344 1014.51 118.633C1015.28 119.908 1015.67 121.402 1015.67 123.116C1015.67 124.053 1015.51 125.005 1015.19 125.972C1014.88 126.924 1014.45 127.876 1013.89 128.829C1013.35 129.781 1012.71 130.718 1011.98 131.641C1011.26 132.564 1010.49 133.472 1009.67 134.366L1001.1 143.66H1017.14ZM1041.67 138.343C1041.67 140.291 1041.21 141.946 1040.3 143.309C1039.41 144.656 1038.19 145.682 1036.66 146.385C1035.13 147.088 1033.41 147.439 1031.49 147.439C1029.57 147.439 1027.84 147.088 1026.31 146.385C1024.77 145.682 1023.55 144.656 1022.66 143.309C1021.77 141.946 1021.32 140.291 1021.32 138.343C1021.32 137.068 1021.56 135.904 1022.04 134.849C1022.54 133.78 1023.24 132.85 1024.13 132.059C1025.04 131.268 1026.11 130.66 1027.34 130.235C1028.58 129.795 1029.95 129.576 1031.45 129.576C1033.41 129.576 1035.16 129.957 1036.7 130.718C1038.24 131.465 1039.45 132.498 1040.33 133.816C1041.22 135.135 1041.67 136.644 1041.67 138.343ZM1037.58 138.255C1037.58 137.068 1037.32 136.021 1036.81 135.113C1036.3 134.19 1035.58 133.472 1034.66 132.959C1033.73 132.447 1032.66 132.19 1031.45 132.19C1030.2 132.19 1029.13 132.447 1028.22 132.959C1027.32 133.472 1026.63 134.19 1026.13 135.113C1025.63 136.021 1025.38 137.068 1025.38 138.255C1025.38 139.485 1025.63 140.54 1026.11 141.419C1026.61 142.283 1027.31 142.95 1028.22 143.418C1029.14 143.873 1030.23 144.1 1031.49 144.1C1032.75 144.1 1033.84 143.873 1034.74 143.418C1035.65 142.95 1036.35 142.283 1036.83 141.419C1037.33 140.54 1037.58 139.485 1037.58 138.255ZM1040.92 123.335C1040.92 124.888 1040.51 126.287 1039.69 127.532C1038.87 128.777 1037.75 129.759 1036.33 130.477C1034.91 131.194 1033.29 131.553 1031.49 131.553C1029.66 131.553 1028.03 131.194 1026.59 130.477C1025.17 129.759 1024.06 128.777 1023.25 127.532C1022.45 126.287 1022.04 124.888 1022.04 123.335C1022.04 121.475 1022.45 119.893 1023.25 118.589C1024.07 117.286 1025.19 116.29 1026.61 115.601C1028.04 114.913 1029.65 114.568 1031.47 114.568C1033.3 114.568 1034.93 114.913 1036.35 115.601C1037.77 116.29 1038.88 117.286 1039.69 118.589C1040.51 119.893 1040.92 121.475 1040.92 123.335ZM1036.85 123.401C1036.85 122.332 1036.63 121.387 1036.17 120.567C1035.72 119.747 1035.09 119.102 1034.28 118.633C1033.48 118.15 1032.54 117.908 1031.47 117.908C1030.4 117.908 1029.46 118.135 1028.66 118.589C1027.87 119.029 1027.24 119.659 1026.79 120.479C1026.35 121.299 1026.13 122.273 1026.13 123.401C1026.13 124.5 1026.35 125.459 1026.79 126.28C1027.24 127.1 1027.87 127.737 1028.68 128.191C1029.49 128.646 1030.42 128.873 1031.49 128.873C1032.56 128.873 1033.49 128.646 1034.28 128.191C1035.09 127.737 1035.72 127.1 1036.17 126.28C1036.63 125.459 1036.85 124.5 1036.85 123.401Z" fill="black" fill-opacity="0.63"/>
</svg>
