<svg width="1173" height="191" viewBox="0 0 1173 191" fill="none" xmlns="http://www.w3.org/2000/svg">
<path d="M986.352 1.02681C980.425 1.02681 975.803 6.04802 976.496 11.9337C981.379 53.4197 1000.6 197.59 1028.82 167.968C1058.17 137.16 1115.02 70.3042 1169.63 18.5315C1176.32 12.1814 1171.86 0.643661 1162.63 0.681039L1077.25 1.02681L986.352 1.02681Z" fill="white"/>
<path d="M94.999 95.6367H1015" stroke="white" stroke-width="189" stroke-linecap="round"/>
<path d="M121.987 67.3672L136.384 95.208L150.818 67.3672H159.159L140.04 102.102V122.82H132.689V102.102L113.57 67.3672H121.987ZM160.835 102.673V101.797C160.835 98.8262 161.267 96.0713 162.13 93.5322C162.993 90.9678 164.237 88.7461 165.862 86.8672C167.487 84.9629 169.455 83.4902 171.766 82.4492C174.076 81.3828 176.666 80.8496 179.535 80.8496C182.43 80.8496 185.032 81.3828 187.343 82.4492C189.679 83.4902 191.659 84.9629 193.284 86.8672C194.935 88.7461 196.191 90.9678 197.055 93.5322C197.918 96.0713 198.35 98.8262 198.35 101.797V102.673C198.35 105.644 197.918 108.398 197.055 110.938C196.191 113.477 194.935 115.698 193.284 117.603C191.659 119.481 189.691 120.954 187.381 122.021C185.096 123.062 182.506 123.582 179.611 123.582C176.717 123.582 174.114 123.062 171.804 122.021C169.493 120.954 167.513 119.481 165.862 117.603C164.237 115.698 162.993 113.477 162.13 110.938C161.267 108.398 160.835 105.644 160.835 102.673ZM167.881 101.797V102.673C167.881 104.729 168.122 106.672 168.604 108.5C169.087 110.303 169.811 111.902 170.775 113.299C171.766 114.695 172.997 115.8 174.47 116.612C175.942 117.399 177.656 117.793 179.611 117.793C181.541 117.793 183.229 117.399 184.677 116.612C186.149 115.8 187.368 114.695 188.333 113.299C189.298 111.902 190.021 110.303 190.504 108.5C191.012 106.672 191.266 104.729 191.266 102.673V101.797C191.266 99.7656 191.012 97.8486 190.504 96.0459C190.021 94.2178 189.285 92.6055 188.295 91.209C187.33 89.7871 186.111 88.6699 184.639 87.8574C183.191 87.0449 181.49 86.6387 179.535 86.6387C177.605 86.6387 175.904 87.0449 174.432 87.8574C172.984 88.6699 171.766 89.7871 170.775 91.209C169.811 92.6055 169.087 94.2178 168.604 96.0459C168.122 97.8486 167.881 99.7656 167.881 101.797ZM215.564 67.3672L215.069 107.167H208.709L208.176 67.3672H215.564ZM207.947 119.278C207.947 118.136 208.29 117.171 208.976 116.384C209.687 115.597 210.728 115.203 212.099 115.203C213.444 115.203 214.473 115.597 215.184 116.384C215.92 117.171 216.288 118.136 216.288 119.278C216.288 120.37 215.92 121.31 215.184 122.097C214.473 122.884 213.444 123.277 212.099 123.277C210.728 123.277 209.687 122.884 208.976 122.097C208.29 121.31 207.947 120.37 207.947 119.278ZM270.979 106.634V67.3672H278.292V106.634C278.292 110.29 277.543 113.375 276.045 115.889C274.547 118.402 272.478 120.319 269.837 121.64C267.222 122.935 264.213 123.582 260.811 123.582C257.408 123.582 254.387 122.998 251.746 121.83C249.105 120.662 247.036 118.885 245.538 116.498C244.04 114.111 243.291 111.103 243.291 107.472H250.642C250.642 109.808 251.073 111.725 251.937 113.223C252.8 114.721 253.993 115.825 255.517 116.536C257.065 117.247 258.83 117.603 260.811 117.603C262.74 117.603 264.467 117.196 265.99 116.384C267.539 115.546 268.758 114.314 269.646 112.689C270.535 111.039 270.979 109.021 270.979 106.634ZM314.893 113.299V81.6113H321.977V122.82H315.235L314.893 113.299ZM316.226 104.615L319.158 104.539C319.158 107.281 318.866 109.82 318.282 112.156C317.724 114.467 316.81 116.473 315.54 118.174C314.271 119.875 312.607 121.208 310.551 122.173C308.494 123.112 305.993 123.582 303.048 123.582C301.042 123.582 299.201 123.29 297.525 122.706C295.875 122.122 294.453 121.221 293.26 120.002C292.066 118.783 291.14 117.196 290.479 115.241C289.845 113.286 289.527 110.938 289.527 108.195V81.6113H296.573V108.271C296.573 110.125 296.776 111.661 297.183 112.88C297.614 114.073 298.186 115.025 298.896 115.736C299.633 116.422 300.445 116.904 301.334 117.184C302.248 117.463 303.188 117.603 304.152 117.603C307.148 117.603 309.522 117.031 311.274 115.889C313.026 114.721 314.283 113.159 315.045 111.204C315.832 109.224 316.226 107.027 316.226 104.615ZM356.711 111.89C356.711 110.874 356.482 109.935 356.025 109.071C355.594 108.183 354.692 107.383 353.321 106.672C351.976 105.936 349.944 105.301 347.228 104.768C344.942 104.285 342.873 103.714 341.02 103.054C339.191 102.394 337.63 101.594 336.335 100.654C335.065 99.7148 334.088 98.6104 333.402 97.3408C332.717 96.0713 332.374 94.5859 332.374 92.8848C332.374 91.2598 332.729 89.7236 333.44 88.2764C334.177 86.8291 335.205 85.5469 336.525 84.4297C337.871 83.3125 339.483 82.4365 341.362 81.8018C343.241 81.167 345.336 80.8496 347.646 80.8496C350.947 80.8496 353.766 81.4336 356.102 82.6016C358.438 83.7695 360.228 85.3311 361.472 87.2861C362.716 89.2158 363.338 91.3613 363.338 93.7227H356.292C356.292 92.5801 355.949 91.4756 355.264 90.4092C354.604 89.3174 353.626 88.416 352.331 87.7051C351.062 86.9941 349.5 86.6387 347.646 86.6387C345.691 86.6387 344.104 86.9434 342.886 87.5527C341.692 88.1367 340.816 88.8857 340.258 89.7998C339.725 90.7139 339.458 91.6787 339.458 92.6943C339.458 93.4561 339.585 94.1416 339.839 94.751C340.118 95.335 340.601 95.8809 341.286 96.3887C341.972 96.8711 342.937 97.3281 344.181 97.7598C345.425 98.1914 347.012 98.623 348.941 99.0547C352.318 99.8164 355.099 100.73 357.282 101.797C359.466 102.863 361.091 104.171 362.157 105.72C363.224 107.269 363.757 109.147 363.757 111.356C363.757 113.159 363.376 114.81 362.614 116.308C361.878 117.806 360.799 119.101 359.377 120.192C357.98 121.259 356.305 122.097 354.35 122.706C352.42 123.29 350.249 123.582 347.837 123.582C344.206 123.582 341.134 122.935 338.62 121.64C336.106 120.345 334.202 118.669 332.907 116.612C331.612 114.556 330.965 112.385 330.965 110.1H338.049C338.15 112.029 338.709 113.565 339.725 114.708C340.74 115.825 341.984 116.625 343.457 117.107C344.93 117.564 346.39 117.793 347.837 117.793C349.767 117.793 351.379 117.539 352.674 117.031C353.994 116.523 354.997 115.825 355.683 114.937C356.368 114.048 356.711 113.032 356.711 111.89ZM390.265 81.6113V87.0195H367.984V81.6113H390.265ZM375.525 71.5947H382.571V112.613C382.571 114.01 382.787 115.063 383.219 115.774C383.65 116.485 384.209 116.955 384.895 117.184C385.58 117.412 386.316 117.526 387.104 117.526C387.688 117.526 388.297 117.476 388.932 117.374C389.592 117.247 390.087 117.146 390.417 117.069L390.455 122.82C389.896 122.998 389.16 123.163 388.246 123.315C387.357 123.493 386.278 123.582 385.009 123.582C383.282 123.582 381.695 123.239 380.248 122.554C378.801 121.868 377.646 120.726 376.782 119.126C375.944 117.501 375.525 115.317 375.525 112.575V71.5947ZM434.368 117.793C436.044 117.793 437.593 117.45 439.015 116.765C440.437 116.079 441.604 115.14 442.519 113.946C443.433 112.728 443.953 111.344 444.08 109.795H450.783C450.656 112.232 449.831 114.505 448.308 116.612C446.81 118.694 444.842 120.383 442.404 121.678C439.967 122.947 437.288 123.582 434.368 123.582C431.271 123.582 428.566 123.036 426.256 121.944C423.971 120.853 422.066 119.354 420.543 117.45C419.045 115.546 417.915 113.362 417.153 110.899C416.417 108.411 416.049 105.783 416.049 103.016V101.416C416.049 98.6484 416.417 96.0332 417.153 93.5703C417.915 91.082 419.045 88.8857 420.543 86.9814C422.066 85.0771 423.971 83.5791 426.256 82.4873C428.566 81.3955 431.271 80.8496 434.368 80.8496C437.593 80.8496 440.411 81.5098 442.823 82.8301C445.235 84.125 447.127 85.9023 448.498 88.1621C449.895 90.3965 450.656 92.9355 450.783 95.7793H444.08C443.953 94.0781 443.471 92.542 442.633 91.1709C441.82 89.7998 440.703 88.708 439.281 87.8955C437.885 87.0576 436.247 86.6387 434.368 86.6387C432.21 86.6387 430.395 87.0703 428.922 87.9336C427.475 88.7715 426.319 89.9141 425.456 91.3613C424.618 92.7832 424.009 94.3701 423.628 96.1221C423.272 97.8486 423.095 99.6133 423.095 101.416V103.016C423.095 104.818 423.272 106.596 423.628 108.348C423.983 110.1 424.58 111.687 425.418 113.108C426.281 114.53 427.437 115.673 428.884 116.536C430.356 117.374 432.185 117.793 434.368 117.793ZM465.751 64.3203V122.82H458.705V64.3203H465.751ZM464.075 100.654L461.143 100.54C461.168 97.7217 461.587 95.1191 462.399 92.7324C463.212 90.3203 464.354 88.2256 465.827 86.4482C467.3 84.6709 469.052 83.2998 471.083 82.335C473.14 81.3447 475.412 80.8496 477.9 80.8496C479.932 80.8496 481.76 81.1289 483.385 81.6875C485.01 82.2207 486.394 83.084 487.536 84.2773C488.704 85.4707 489.593 87.0195 490.202 88.9238C490.812 90.8027 491.116 93.1006 491.116 95.8174V122.82H484.032V95.7412C484.032 93.583 483.715 91.8564 483.08 90.5615C482.445 89.2412 481.519 88.2891 480.3 87.7051C479.081 87.0957 477.583 86.791 475.806 86.791C474.054 86.791 472.454 87.1592 471.007 87.8955C469.585 88.6318 468.354 89.6475 467.312 90.9424C466.297 92.2373 465.497 93.7227 464.913 95.3984C464.354 97.0488 464.075 98.8008 464.075 100.654ZM509.321 81.6113V122.82H502.237V81.6113H509.321ZM501.704 70.6807C501.704 69.5381 502.047 68.5732 502.732 67.7861C503.443 66.999 504.484 66.6055 505.855 66.6055C507.201 66.6055 508.229 66.999 508.94 67.7861C509.677 68.5732 510.045 69.5381 510.045 70.6807C510.045 71.7725 509.677 72.7119 508.94 73.499C508.229 74.2607 507.201 74.6416 505.855 74.6416C504.484 74.6416 503.443 74.2607 502.732 73.499C502.047 72.7119 501.704 71.7725 501.704 70.6807ZM528.288 64.3203V122.82H521.204V64.3203H528.288ZM547.255 64.3203V122.82H540.171V64.3203H547.255ZM566.222 81.6113V122.82H559.138V81.6113H566.222ZM558.604 70.6807C558.604 69.5381 558.947 68.5732 559.633 67.7861C560.344 66.999 561.385 66.6055 562.756 66.6055C564.102 66.6055 565.13 66.999 565.841 67.7861C566.577 68.5732 566.945 69.5381 566.945 70.6807C566.945 71.7725 566.577 72.7119 565.841 73.499C565.13 74.2607 564.102 74.6416 562.756 74.6416C561.385 74.6416 560.344 74.2607 559.633 73.499C558.947 72.7119 558.604 71.7725 558.604 70.6807ZM584.579 90.4092V122.82H577.533V81.6113H584.198L584.579 90.4092ZM582.903 100.654L579.971 100.54C579.996 97.7217 580.415 95.1191 581.228 92.7324C582.04 90.3203 583.183 88.2256 584.655 86.4482C586.128 84.6709 587.88 83.2998 589.911 82.335C591.968 81.3447 594.24 80.8496 596.729 80.8496C598.76 80.8496 600.588 81.1289 602.213 81.6875C603.838 82.2207 605.222 83.084 606.364 84.2773C607.532 85.4707 608.421 87.0195 609.03 88.9238C609.64 90.8027 609.944 93.1006 609.944 95.8174V122.82H602.86V95.7412C602.86 93.583 602.543 91.8564 601.908 90.5615C601.273 89.2412 600.347 88.2891 599.128 87.7051C597.909 87.0957 596.411 86.791 594.634 86.791C592.882 86.791 591.282 87.1592 589.835 87.8955C588.413 88.6318 587.182 89.6475 586.141 90.9424C585.125 92.2373 584.325 93.7227 583.741 95.3984C583.183 97.0488 582.903 98.8008 582.903 100.654ZM647.345 81.6113H653.743V121.944C653.743 125.575 653.007 128.673 651.534 131.237C650.062 133.802 648.005 135.744 645.364 137.064C642.749 138.41 639.728 139.083 636.3 139.083C634.878 139.083 633.202 138.854 631.272 138.397C629.368 137.966 627.489 137.217 625.636 136.15C623.808 135.109 622.271 133.7 621.027 131.923L624.722 127.733C626.448 129.815 628.251 131.263 630.13 132.075C632.034 132.888 633.913 133.294 635.767 133.294C638.001 133.294 639.931 132.875 641.556 132.037C643.181 131.199 644.438 129.955 645.326 128.305C646.24 126.68 646.697 124.674 646.697 122.287V90.6758L647.345 81.6113ZM618.971 102.673V101.873C618.971 98.7246 619.339 95.8682 620.075 93.3037C620.837 90.7139 621.916 88.4922 623.312 86.6387C624.734 84.7852 626.448 83.3633 628.454 82.373C630.46 81.3574 632.72 80.8496 635.233 80.8496C637.823 80.8496 640.083 81.3066 642.013 82.2207C643.968 83.1094 645.618 84.417 646.964 86.1436C648.335 87.8447 649.414 89.9014 650.201 92.3135C650.988 94.7256 651.534 97.4551 651.839 100.502V104.006C651.56 107.027 651.014 109.744 650.201 112.156C649.414 114.568 648.335 116.625 646.964 118.326C645.618 120.027 643.968 121.335 642.013 122.249C640.058 123.138 637.772 123.582 635.157 123.582C632.694 123.582 630.46 123.062 628.454 122.021C626.474 120.979 624.772 119.52 623.351 117.641C621.929 115.762 620.837 113.553 620.075 111.014C619.339 108.449 618.971 105.669 618.971 102.673ZM626.017 101.873V102.673C626.017 104.729 626.22 106.659 626.626 108.462C627.058 110.265 627.705 111.852 628.568 113.223C629.457 114.594 630.587 115.673 631.958 116.46C633.329 117.222 634.967 117.603 636.871 117.603C639.207 117.603 641.137 117.107 642.66 116.117C644.184 115.127 645.39 113.819 646.278 112.194C647.192 110.569 647.903 108.805 648.411 106.9V97.7217C648.132 96.3252 647.7 94.9795 647.116 93.6846C646.558 92.3643 645.821 91.1963 644.907 90.1807C644.019 89.1396 642.914 88.3145 641.594 87.7051C640.273 87.0957 638.725 86.791 636.947 86.791C635.018 86.791 633.354 87.1973 631.958 88.0098C630.587 88.7969 629.457 89.8887 628.568 91.2852C627.705 92.6562 627.058 94.2559 626.626 96.084C626.22 97.8867 626.017 99.8164 626.017 101.873ZM664.56 119.088C664.56 117.895 664.928 116.892 665.664 116.079C666.426 115.241 667.518 114.822 668.939 114.822C670.361 114.822 671.44 115.241 672.177 116.079C672.938 116.892 673.319 117.895 673.319 119.088C673.319 120.256 672.938 121.246 672.177 122.059C671.44 122.871 670.361 123.277 668.939 123.277C667.518 123.277 666.426 122.871 665.664 122.059C664.928 121.246 664.56 120.256 664.56 119.088ZM707.978 67.3672L722.374 95.208L736.809 67.3672H745.149L726.03 102.102V122.82H718.68V102.102L699.561 67.3672H707.978ZM746.825 102.673V101.797C746.825 98.8262 747.257 96.0713 748.12 93.5322C748.983 90.9678 750.228 88.7461 751.853 86.8672C753.478 84.9629 755.445 83.4902 757.756 82.4492C760.066 81.3828 762.656 80.8496 765.525 80.8496C768.42 80.8496 771.022 81.3828 773.333 82.4492C775.669 83.4902 777.649 84.9629 779.274 86.8672C780.925 88.7461 782.182 90.9678 783.045 93.5322C783.908 96.0713 784.34 98.8262 784.34 101.797V102.673C784.34 105.644 783.908 108.398 783.045 110.938C782.182 113.477 780.925 115.698 779.274 117.603C777.649 119.481 775.682 120.954 773.371 122.021C771.086 123.062 768.496 123.582 765.602 123.582C762.707 123.582 760.104 123.062 757.794 122.021C755.483 120.954 753.503 119.481 751.853 117.603C750.228 115.698 748.983 113.477 748.12 110.938C747.257 108.398 746.825 105.644 746.825 102.673ZM753.871 101.797V102.673C753.871 104.729 754.112 106.672 754.595 108.5C755.077 110.303 755.801 111.902 756.766 113.299C757.756 114.695 758.987 115.8 760.46 116.612C761.933 117.399 763.646 117.793 765.602 117.793C767.531 117.793 769.22 117.399 770.667 116.612C772.14 115.8 773.358 114.695 774.323 113.299C775.288 111.902 776.012 110.303 776.494 108.5C777.002 106.672 777.256 104.729 777.256 102.673V101.797C777.256 99.7656 777.002 97.8486 776.494 96.0459C776.012 94.2178 775.275 92.6055 774.285 91.209C773.32 89.7871 772.102 88.6699 770.629 87.8574C769.182 87.0449 767.48 86.6387 765.525 86.6387C763.596 86.6387 761.895 87.0449 760.422 87.8574C758.975 88.6699 757.756 89.7871 756.766 91.209C755.801 92.6055 755.077 94.2178 754.595 96.0459C754.112 97.8486 753.871 99.7656 753.871 101.797ZM818.389 113.299V81.6113H825.473V122.82H818.731L818.389 113.299ZM819.722 104.615L822.654 104.539C822.654 107.281 822.362 109.82 821.778 112.156C821.22 114.467 820.306 116.473 819.036 118.174C817.767 119.875 816.104 121.208 814.047 122.173C811.99 123.112 809.489 123.582 806.544 123.582C804.538 123.582 802.697 123.29 801.021 122.706C799.371 122.122 797.949 121.221 796.756 120.002C795.562 118.783 794.636 117.196 793.976 115.241C793.341 113.286 793.023 110.938 793.023 108.195V81.6113H800.069V108.271C800.069 110.125 800.272 111.661 800.679 112.88C801.11 114.073 801.682 115.025 802.393 115.736C803.129 116.422 803.941 116.904 804.83 117.184C805.744 117.463 806.684 117.603 807.648 117.603C810.645 117.603 813.019 117.031 814.771 115.889C816.522 114.721 817.779 113.159 818.541 111.204C819.328 109.224 819.722 107.027 819.722 104.615ZM851.523 107.205H844.439C844.465 104.768 844.681 102.774 845.087 101.226C845.519 99.6514 846.217 98.2168 847.182 96.9219C848.146 95.627 849.429 94.1543 851.028 92.5039C852.196 91.3105 853.263 90.1934 854.228 89.1523C855.218 88.0859 856.018 86.9434 856.627 85.7246C857.236 84.4805 857.541 82.9951 857.541 81.2686C857.541 79.5166 857.224 78.0059 856.589 76.7363C855.979 75.4668 855.065 74.4893 853.847 73.8037C852.653 73.1182 851.168 72.7754 849.391 72.7754C847.918 72.7754 846.521 73.042 845.201 73.5752C843.881 74.1084 842.814 74.9336 842.002 76.0508C841.189 77.1426 840.771 78.5771 840.745 80.3545H833.699C833.75 77.4854 834.461 75.0225 835.832 72.9658C837.229 70.9092 839.107 69.335 841.469 68.2432C843.83 67.1514 846.471 66.6055 849.391 66.6055C852.615 66.6055 855.357 67.1895 857.617 68.3574C859.902 69.5254 861.642 71.2012 862.835 73.3848C864.028 75.543 864.625 78.1074 864.625 81.0781C864.625 83.3633 864.155 85.4707 863.216 87.4004C862.302 89.3047 861.121 91.0947 859.674 92.7705C858.227 94.4463 856.69 96.0459 855.065 97.5693C853.669 98.8643 852.729 100.324 852.247 101.949C851.765 103.574 851.523 105.326 851.523 107.205ZM844.135 119.278C844.135 118.136 844.49 117.171 845.201 116.384C845.912 115.597 846.94 115.203 848.286 115.203C849.657 115.203 850.698 115.597 851.409 116.384C852.12 117.171 852.476 118.136 852.476 119.278C852.476 120.37 852.12 121.31 851.409 122.097C850.698 122.884 849.657 123.277 848.286 123.277C846.94 123.277 845.912 122.884 845.201 122.097C844.49 121.31 844.135 120.37 844.135 119.278Z" fill="black"/>
<path d="M905.017 114.652V146.82H900.952V119.728L892.756 122.716V119.047L904.38 114.652H905.017ZM930.33 114.652V146.82H926.265V119.728L918.069 122.716V119.047L929.692 114.652H930.33ZM942.546 144.667C942.546 143.979 942.759 143.4 943.184 142.931C943.623 142.448 944.253 142.206 945.073 142.206C945.894 142.206 946.516 142.448 946.941 142.931C947.38 143.4 947.6 143.979 947.6 144.667C947.6 145.341 947.38 145.912 946.941 146.381C946.516 146.85 945.894 147.084 945.073 147.084C944.253 147.084 943.623 146.85 943.184 146.381C942.759 145.912 942.546 145.341 942.546 144.667ZM942.568 125.265C942.568 124.577 942.781 123.998 943.206 123.529C943.645 123.046 944.275 122.804 945.095 122.804C945.916 122.804 946.538 123.046 946.963 123.529C947.402 123.998 947.622 124.577 947.622 125.265C947.622 125.939 947.402 126.51 946.963 126.979C946.538 127.448 945.916 127.682 945.095 127.682C944.275 127.682 943.645 127.448 943.206 126.979C942.781 126.51 942.568 125.939 942.568 125.265ZM974.143 143.48V146.82H953.203V143.898L963.684 132.23C964.973 130.795 965.969 129.579 966.672 128.583C967.39 127.572 967.888 126.671 968.167 125.88C968.459 125.075 968.606 124.254 968.606 123.419C968.606 122.365 968.386 121.413 967.947 120.563C967.522 119.699 966.892 119.01 966.057 118.498C965.222 117.985 964.211 117.729 963.025 117.729C961.604 117.729 960.417 118.007 959.465 118.563C958.528 119.105 957.825 119.867 957.356 120.849C956.887 121.83 956.653 122.958 956.653 124.232H952.588C952.588 122.431 952.983 120.783 953.774 119.289C954.565 117.794 955.737 116.608 957.29 115.729C958.843 114.835 960.754 114.389 963.025 114.389C965.046 114.389 966.775 114.748 968.21 115.465C969.646 116.168 970.745 117.165 971.506 118.454C972.283 119.728 972.671 121.222 972.671 122.936C972.671 123.874 972.51 124.826 972.188 125.792C971.88 126.745 971.448 127.697 970.891 128.649C970.349 129.601 969.712 130.539 968.979 131.461C968.262 132.384 967.493 133.292 966.672 134.186L958.103 143.48H974.143ZM998.665 138.163C998.665 140.111 998.21 141.767 997.302 143.129C996.409 144.477 995.193 145.502 993.655 146.205C992.131 146.908 990.41 147.26 988.491 147.26C986.572 147.26 984.844 146.908 983.306 146.205C981.768 145.502 980.552 144.477 979.658 143.129C978.765 141.767 978.318 140.111 978.318 138.163C978.318 136.889 978.56 135.724 979.043 134.669C979.541 133.6 980.237 132.67 981.13 131.879C982.039 131.088 983.108 130.48 984.338 130.055C985.583 129.616 986.953 129.396 988.447 129.396C990.41 129.396 992.161 129.777 993.699 130.539C995.237 131.286 996.445 132.318 997.324 133.637C998.218 134.955 998.665 136.464 998.665 138.163ZM994.578 138.075C994.578 136.889 994.321 135.841 993.809 134.933C993.296 134.01 992.578 133.292 991.655 132.78C990.732 132.267 989.663 132.011 988.447 132.011C987.202 132.011 986.125 132.267 985.217 132.78C984.324 133.292 983.628 134.01 983.13 134.933C982.632 135.841 982.383 136.889 982.383 138.075C982.383 139.306 982.625 140.36 983.108 141.239C983.606 142.104 984.309 142.77 985.217 143.239C986.14 143.693 987.231 143.92 988.491 143.92C989.751 143.92 990.835 143.693 991.743 143.239C992.651 142.77 993.347 142.104 993.831 141.239C994.329 140.36 994.578 139.306 994.578 138.075ZM997.917 123.156C997.917 124.708 997.507 126.107 996.687 127.353C995.867 128.598 994.746 129.579 993.325 130.297C991.904 131.015 990.293 131.374 988.491 131.374C986.66 131.374 985.027 131.015 983.591 130.297C982.17 129.579 981.057 128.598 980.251 127.353C979.446 126.107 979.043 124.708 979.043 123.156C979.043 121.295 979.446 119.713 980.251 118.41C981.072 117.106 982.192 116.11 983.613 115.421C985.034 114.733 986.653 114.389 988.469 114.389C990.3 114.389 991.926 114.733 993.347 115.421C994.768 116.11 995.881 117.106 996.687 118.41C997.507 119.713 997.917 121.295 997.917 123.156ZM993.853 123.222C993.853 122.152 993.625 121.208 993.171 120.387C992.717 119.567 992.087 118.922 991.282 118.454C990.476 117.97 989.539 117.729 988.469 117.729C987.4 117.729 986.462 117.956 985.657 118.41C984.866 118.849 984.243 119.479 983.789 120.299C983.35 121.12 983.13 122.094 983.13 123.222C983.13 124.32 983.35 125.28 983.789 126.1C984.243 126.92 984.873 127.558 985.679 128.012C986.484 128.466 987.422 128.693 988.491 128.693C989.561 128.693 990.491 128.466 991.282 128.012C992.087 127.558 992.717 126.92 993.171 126.1C993.625 125.28 993.853 124.32 993.853 123.222Z" fill="black" fill-opacity="0.63"/>
</svg>
